<svg version="1.1" id="Layer_1" xmlns="http://www.w3.org/2000/svg" xmlns:xlink="http://www.w3.org/1999/xlink" x="0px" y="0px"
	 width="100%" viewBox="0 0 256 256"  xml:space="preserve">
<path fill="#646D78" opacity="1.000000" stroke="none" 
	d="
M15.124462,173.091995 
	C15.081994,129.146622 15.020053,85.201248 15.020266,41.255878 
	C15.020294,35.376427 20.261814,29.958750 25.640020,29.959661 
	C94.390640,29.971323 163.141266,30.007912 231.891846,29.955782 
	C237.269547,29.951704 241.791672,31.300215 244.866287,35.915401 
	C245.502090,36.869762 245.610184,38.175678 245.670181,40.056046 
	C245.271729,41.611332 245.070633,42.430180 245.070923,43.248951 
	C245.084732,81.484253 245.116058,119.719551 245.104553,158.424255 
	C245.021515,163.548706 244.979294,168.203751 244.927734,172.963776 
	C244.918427,173.068741 245.014969,173.256104 244.549179,173.194870 
	C180.203979,173.119995 116.324570,173.098969 52.445156,173.099243 
	C40.303375,173.099289 28.161594,173.183670 15.802636,173.151398 
	C15.585459,173.073624 15.124462,173.091995 15.124462,173.091995 
M34.013264,161.981522 
	C34.013264,161.981522 34.040039,161.925171 34.971680,161.960541 
	C99.938263,161.971039 164.904892,161.953735 229.871307,162.061630 
	C233.741669,162.068069 235.064453,161.003525 235.049637,156.987717 
	C234.914368,120.340340 234.920044,83.692093 235.042130,47.044632 
	C235.055145,43.137623 233.908463,41.876991 229.932236,41.884357 
	C164.632782,42.005383 99.333076,41.991653 33.491482,42.008831 
	C33.311127,42.013451 33.130768,42.018066 32.088512,41.998077 
	C27.674057,41.280460 26.901012,43.561890 26.913094,47.457474 
	C27.031443,85.615067 26.993643,123.773148 27.549755,162.451477 
	C29.693226,162.312454 31.836699,162.173431 34.013264,161.981522 
z"/>
<path fill="#E6E9ED" opacity="1.000000" stroke="none" 
	d="
M16.019814,173.229156 
	C28.161594,173.183670 40.303375,173.099289 52.445156,173.099243 
	C116.324570,173.098969 180.203979,173.119995 244.543274,173.646057 
	C244.961121,180.715897 244.919067,187.273285 244.536163,193.931580 
	C240.593506,198.016800 235.939056,198.102127 230.982437,198.094803 
	C166.363113,197.999237 101.743614,198.038086 37.124161,198.022537 
	C29.442986,198.020691 21.414141,199.403488 15.202308,192.971100 
	C15.158085,192.533295 15.113861,192.095474 15.259140,191.227295 
	C15.590112,190.453430 15.497878,190.181747 15.171941,189.981857 
	C15.119226,184.961700 15.066512,179.941528 15.260254,174.364777 
	C15.728631,173.660263 15.899666,173.467255 16.019814,173.229156 
M128.386688,191.141037 
	C130.675995,190.428131 133.647614,190.330902 135.029602,188.799301 
	C136.057358,187.660309 135.691010,184.302994 134.757950,182.574951 
	C133.271774,179.822495 130.435684,179.018173 127.597275,181.072174 
	C124.329712,183.436707 124.437050,186.881180 128.386688,191.141037 
z"/>
<path fill="#CAD1D9" opacity="1.000000" stroke="none" 
	d="
M15.110876,193.392822 
	C21.414141,199.403488 29.442986,198.020691 37.124161,198.022537 
	C101.743614,198.038086 166.363113,197.999237 230.982437,198.094803 
	C235.939056,198.102127 240.593506,198.016800 244.574234,194.383499 
	C244.998245,196.793320 245.043335,198.852127 245.088440,200.910919 
	C244.902161,201.237717 244.715881,201.564514 244.059799,202.083817 
	C243.347122,202.458145 243.170319,202.690323 243.059570,202.972839 
	C243.059570,202.972839 243.054916,203.055038 242.818604,203.168060 
	C242.339600,203.470428 242.166000,203.709869 242.061523,203.999420 
	C241.867584,204.309967 241.673645,204.620529 240.834015,204.971588 
	C238.784607,205.606369 237.380905,206.200623 235.977203,206.794891 
	C209.661804,206.865585 183.346390,206.936279 156.184052,206.851379 
	C154.377197,206.469254 153.417908,206.048508 152.457245,206.045334 
	C138.018417,205.998001 123.579308,205.982834 109.140648,206.047134 
	C108.079704,206.051849 107.021736,206.723480 105.962387,207.085068 
	C80.036911,207.057159 54.111412,207.037704 28.185957,206.996674 
	C19.219635,206.982483 15.031039,202.762878 15.110876,193.392822 
z"/>
<path fill="#CAD1D9" opacity="1.000000" stroke="none" 
	d="
M155.823074,210.041229 
	C157.901993,218.525131 159.980927,227.009018 162.185471,236.005508 
	C162.585419,236.005508 163.885635,236.005508 165.242432,236.316437 
	C164.483185,236.751343 163.667343,236.983810 162.851547,236.983582 
	C139.567184,236.977112 116.282822,236.947250 92.998459,236.921204 
	C99.596771,236.628494 100.628075,232.218460 101.267555,226.750259 
	C101.861496,221.671448 103.623192,216.729233 105.392929,211.175491 
	C107.365204,210.406662 108.814995,210.002716 110.265411,210.000488 
	C125.451241,209.977112 140.637177,210.018082 155.823074,210.041229 
z"/>
<path fill="#6E99A1" opacity="1.000000" stroke="none" 
	d="
M245.145370,157.954834 
	C245.116058,119.719551 245.084732,81.484253 245.070923,43.248951 
	C245.070633,42.430180 245.271729,41.611332 245.587631,40.448509 
	C246.191071,42.156654 246.925903,44.208145 246.929901,46.261063 
	C247.001846,83.187241 246.985443,120.113602 246.637299,157.508698 
	C245.906204,157.969940 245.525787,157.962387 245.145370,157.954834 
z"/>
<path fill="#E2E8EC" opacity="1.000000" stroke="none" 
	d="
M92.968163,236.930542 
	C116.282822,236.947250 139.567184,236.977112 162.851547,236.983582 
	C163.667343,236.983810 164.483185,236.751343 165.644424,236.404648 
	C166.458694,236.147614 166.927536,236.113297 167.796478,236.346893 
	C168.356308,236.829803 168.567352,236.910339 168.829681,236.856400 
	C168.829681,236.856400 169.080582,236.904404 169.139053,237.215088 
	C169.331757,237.757446 169.526688,237.913284 169.782303,237.993286 
	C169.911179,241.847809 166.892838,239.884857 165.587173,239.893005 
	C141.707687,240.041840 117.826988,239.996246 93.472198,239.563873 
	C92.973190,238.424438 92.948524,237.713074 92.923851,237.001694 
	C92.923851,237.001694 92.937866,236.939865 92.968163,236.930542 
z"/>
<path fill="#ADB6C1" opacity="1.000000" stroke="none" 
	d="
M155.899689,209.673248 
	C140.637177,210.018082 125.451241,209.977112 110.265411,210.000488 
	C108.814995,210.002716 107.365204,210.406662 105.551788,210.806534 
	C105.379379,209.911743 105.570312,208.834534 105.861816,207.421204 
	C107.021736,206.723480 108.079704,206.051849 109.140648,206.047134 
	C123.579308,205.982834 138.018417,205.998001 152.457245,206.045334 
	C153.417908,206.048508 154.377197,206.469254 155.722809,206.876770 
	C156.064438,207.806915 156.020370,208.556091 155.899689,209.673248 
z"/>
<path fill="#C4D7DC" opacity="1.000000" stroke="none" 
	d="
M245.429840,200.724762 
	C245.043335,198.852127 244.998245,196.793320 244.915100,194.282608 
	C244.919067,187.273285 244.961121,180.715897 245.009064,173.707306 
	C245.014969,173.256104 244.918427,173.068741 245.242767,173.050766 
	C245.997177,173.108307 246.427246,173.183823 246.857330,173.259323 
	C246.495300,182.352417 246.133286,191.445511 245.429840,200.724762 
z"/>
<path fill="#5D9099" opacity="1.000000" stroke="none" 
	d="
M246.924530,172.774353 
	C246.427246,173.183823 245.997177,173.108307 245.252075,172.945801 
	C244.979294,168.203751 245.021515,163.548706 245.104553,158.424255 
	C245.525787,157.962387 245.906204,157.969940 246.573181,157.971252 
	C246.903763,162.739822 246.947754,167.514603 246.924530,172.774353 
z"/>
<path fill="#C4D7DC" opacity="1.000000" stroke="none" 
	d="
M236.330902,206.858917 
	C237.380905,206.200623 238.784607,205.606369 240.559052,205.043732 
	C239.514755,205.691208 238.099670,206.307068 236.330902,206.858917 
z"/>
<path fill="#CAD1D9" opacity="1.000000" stroke="none" 
	d="
M92.602760,237.106201 
	C92.948524,237.713074 92.973190,238.424438 93.009796,239.492065 
	C92.426414,239.764679 91.831100,239.681046 91.235794,239.597412 
	C91.584419,238.801834 91.933044,238.006271 92.602760,237.106201 
z"/>
<path fill="#C4D7DC" opacity="1.000000" stroke="none" 
	d="
M15.802636,173.151398 
	C15.899666,173.467255 15.728631,173.660263 15.336346,173.903336 
	C15.165981,173.998474 15.025352,173.550751 15.074907,173.321381 
	C15.124462,173.091995 15.585459,173.073624 15.802636,173.151398 
z"/>
<path fill="#CAD1D9" opacity="1.000000" stroke="none" 
	d="
M15.102112,190.240295 
	C15.497878,190.181747 15.590112,190.453430 15.324280,190.902069 
	C15.144038,190.837692 15.088161,190.668198 15.102112,190.240295 
z"/>
<path fill="#C4D7DC" opacity="1.000000" stroke="none" 
	d="
M243.294891,202.924789 
	C243.170319,202.690323 243.347122,202.458145 243.784714,202.175385 
	C243.985184,202.428909 243.835449,202.696335 243.294891,202.924789 
z"/>
<path fill="#C4D7DC" opacity="1.000000" stroke="none" 
	d="
M242.296295,203.939240 
	C242.166000,203.709869 242.339600,203.470428 242.777527,203.170410 
	C242.987198,203.420074 242.839981,203.693192 242.296295,203.939240 
z"/>
<path fill="#CAD1D9" opacity="1.000000" stroke="none" 
	d="
M168.820007,236.643082 
	C168.567352,236.910339 168.356308,236.829803 168.136429,236.447083 
	C168.376434,236.060257 168.621124,236.110397 168.820007,236.643082 
z"/>
<path fill="#CAD1D9" opacity="1.000000" stroke="none" 
	d="
M169.831635,237.768982 
	C169.526688,237.913284 169.331757,237.757446 169.169647,237.339096 
	C169.502640,237.067261 169.749039,237.198013 169.831635,237.768982 
z"/>
<path fill="#464B54" opacity="1.000000" stroke="none" 
	d="
M34.033424,42.008205 
	C99.333076,41.991653 164.632782,42.005383 229.932236,41.884357 
	C233.908463,41.876991 235.055145,43.137623 235.042130,47.044632 
	C234.920044,83.692093 234.914368,120.340340 235.049637,156.987717 
	C235.064453,161.003525 233.741669,162.068069 229.871307,162.061630 
	C164.904892,161.953735 99.938263,161.971039 34.492805,161.482513 
	C34.020428,121.339073 34.026928,81.673637 34.033424,42.008205 
M55.101929,86.868462 
	C52.494701,84.333031 41.934097,82.565788 38.851746,84.411720 
	C37.932377,84.962303 37.003990,86.592773 37.156353,87.558632 
	C37.343422,88.744545 38.647446,90.676796 39.489098,90.687576 
	C45.060387,90.758896 51.081463,92.835144 55.987038,88.673019 
	C58.247925,91.023376 70.038681,92.096092 72.117493,90.140564 
	C73.916824,88.447945 73.210373,84.377716 70.815323,84.160767 
	C66.556458,83.774986 62.224159,83.936249 57.948574,84.237534 
	C57.163933,84.292839 56.502590,86.097862 55.101929,86.868462 
M55.101704,96.869957 
	C52.499775,94.338676 41.923817,92.570152 38.848267,94.414940 
	C37.929523,94.966034 37.004391,96.597748 37.156921,97.564857 
	C37.343845,98.750031 38.650517,100.683426 39.488472,100.691490 
	C45.058022,100.745033 51.085075,102.850220 55.985909,98.674248 
	C59.942055,103.424301 65.218857,100.173538 69.843208,100.758507 
	C70.751602,100.873421 72.793854,98.605637 72.799034,97.430069 
	C72.804230,96.252930 71.021187,94.195000 69.834145,94.048874 
	C66.245018,93.607040 62.536449,93.654839 58.936428,94.061134 
	C57.786278,94.190948 56.829689,96.035843 55.101704,96.869957 
M55.983452,117.670860 
	C56.328022,118.215240 56.650173,119.216553 57.020569,119.234734 
	C61.768936,119.467751 66.529427,119.699028 71.271385,119.520432 
	C71.895172,119.496933 72.989204,117.127785 72.848785,115.968140 
	C72.717880,114.887131 71.301926,113.205223 70.330025,113.116249 
	C66.546562,112.769859 62.690773,112.709900 58.915539,113.084320 
	C57.782597,113.196686 56.824078,115.067787 55.097954,115.906601 
	C52.520306,113.352287 41.974144,111.565407 38.857208,113.417870 
	C37.937576,113.964432 37.012001,115.599106 37.162853,116.567955 
	C37.347191,117.751915 38.653660,119.686600 39.489182,119.694054 
	C45.058762,119.743759 51.089283,121.858200 55.983452,117.670860 
M55.980274,127.673241 
	C56.607662,128.373596 57.207317,129.649200 57.866936,129.681015 
	C62.170212,129.888474 66.498863,130.001572 70.787659,129.698685 
	C71.607620,129.640762 72.976982,127.513336 72.854904,126.488098 
	C72.706276,125.239944 71.345047,123.256607 70.338669,123.146835 
	C66.565407,122.735268 62.699108,122.716286 58.921017,123.089745 
	C57.786884,123.201843 56.826351,125.070122 55.098179,125.907883 
	C52.525452,123.358078 41.967861,121.569420 38.855824,123.419403 
	C37.936321,123.966011 37.011429,125.601570 37.162636,126.570572 
	C37.347466,127.755028 38.655300,129.691132 39.489674,129.697449 
	C45.058464,129.739670 51.091343,131.863312 55.980274,127.673241 
M55.097576,154.911957 
	C52.544415,152.376938 41.945503,150.581787 38.849869,152.424332 
	C37.931149,152.971146 37.011417,154.609100 37.162510,155.580612 
	C37.346508,156.763748 38.656559,158.700562 39.486698,158.704269 
	C45.054161,158.729065 51.092983,160.882690 55.976017,156.682846 
	C56.312504,157.231918 56.625534,158.241791 56.989029,158.260300 
	C61.740906,158.502182 66.504890,158.742935 71.251167,158.573380 
	C71.879517,158.550934 72.981674,156.196930 72.850464,155.037460 
	C72.727379,153.949814 71.324028,152.226349 70.373184,152.149216 
	C66.414803,151.828125 62.397396,151.825699 58.442043,152.170212 
	C57.478436,152.254135 56.668232,154.099289 55.097576,154.911957 
M55.976593,146.678345 
	C56.600025,147.381454 57.195385,148.662155 57.851440,148.694046 
	C62.155937,148.903259 66.485794,149.017853 70.776138,148.717377 
	C71.598793,148.659744 72.856331,146.629944 72.869591,145.497772 
	C72.882851,144.365265 71.666748,142.300339 70.853729,142.230743 
	C66.734024,141.878143 62.555626,141.852066 58.432602,142.167114 
	C57.480606,142.239868 56.665169,144.099716 55.097584,144.912659 
	C52.535568,142.368240 41.954788,140.575165 38.851372,142.423203 
	C37.932423,142.970398 37.011589,144.607620 37.162693,145.578674 
	C37.346817,146.761963 38.656960,148.698715 39.487621,148.702621 
	C45.055096,148.728775 51.093910,150.880844 55.976593,146.678345 
M55.975494,59.656857 
	C59.896099,64.429977 65.158791,61.213108 69.763771,61.769379 
	C70.715981,61.884403 72.781181,59.699272 72.823746,58.519787 
	C72.867813,57.298637 71.190948,55.063408 70.065651,54.926620 
	C66.365349,54.476807 62.546246,54.528492 58.834023,54.939987 
	C57.708996,55.064697 56.782658,56.981804 55.092339,57.842175 
	C52.465897,55.307819 41.933445,53.557678 38.854832,55.405590 
	C37.935516,55.957401 37.004005,57.582130 37.155491,58.545937 
	C37.341846,59.731586 38.640041,61.661186 39.485199,61.675785 
	C45.054615,61.772007 51.066582,63.830025 55.975494,59.656857 
M55.091755,67.843552 
	C52.476330,65.318542 41.922558,63.565224 38.852547,65.407730 
	C37.933418,65.959351 37.003223,67.584908 37.154686,68.549370 
	C37.340832,69.734650 38.640419,71.665062 39.483608,71.678215 
	C45.051777,71.765129 51.065639,73.836594 55.972424,69.662460 
	C59.890934,74.438248 65.154297,71.205589 69.756798,71.775192 
	C70.708488,71.892975 72.779846,69.716797 72.825104,68.539833 
	C72.872017,67.319786 71.200027,65.080299 70.077675,64.943336 
	C66.374802,64.491478 62.553223,64.540344 58.837845,64.948616 
	C57.712315,65.072304 56.783504,66.986168 55.091755,67.843552 
M155.500000,120.008385 
	C174.812592,120.008286 194.125168,120.009575 213.437759,120.005127 
	C214.768890,120.004814 216.327759,120.387474 217.372437,119.828712 
	C218.624924,119.158806 220.195206,117.691788 220.230499,116.527611 
	C220.265991,115.356735 218.813522,113.699440 217.591599,113.057167 
	C216.394989,112.428200 214.667175,112.756081 213.172501,112.755745 
	C170.052185,112.746056 126.931877,112.746025 83.811562,112.755859 
	C82.316963,112.756195 80.587173,112.428864 79.393265,113.060265 
	C78.173935,113.705116 76.728897,115.370651 76.769241,116.541573 
	C76.809341,117.705490 78.385956,119.164352 79.640915,119.830978 
	C80.688354,120.387375 82.245071,120.004219 83.576241,120.004463 
	C107.217491,120.008751 130.858749,120.008034 155.500000,120.008385 
M204.575272,138.578766 
	C206.995926,133.801178 205.768402,132.023636 199.822571,132.019775 
	C160.561615,131.994293 121.300598,132.005997 82.039604,132.006104 
	C81.540550,132.006104 80.894722,131.811646 80.567429,132.050522 
	C79.012817,133.185104 77.544991,134.438599 76.046265,135.649750 
	C77.530716,136.775345 79.012131,138.879333 80.500076,138.883942 
	C121.587898,139.011688 162.676376,138.925995 204.575272,138.578766 
M87.597992,158.959183 
	C121.031715,158.959167 154.465439,158.964066 187.899155,158.944382 
	C189.546097,158.943405 191.420990,159.172470 192.771881,158.479645 
	C193.982635,157.858688 195.370056,156.056915 195.282608,154.879868 
	C195.202957,153.807724 193.392761,152.495743 192.075974,151.987854 
	C190.767822,151.483322 189.123886,151.835739 187.627213,151.835617 
	C154.027161,151.832993 120.427116,151.833389 86.827065,151.834000 
	C84.831039,151.834045 82.725548,151.447617 80.872124,151.963547 
	C79.263229,152.411453 77.939697,153.884430 76.490044,154.904373 
	C77.875656,156.244476 79.048889,158.127258 80.705276,158.775513 
	C82.439919,159.454376 84.638557,158.947662 87.597992,158.959183 
M167.489792,88.011810 
	C171.457703,87.735855 175.516342,87.896812 179.375168,87.095528 
	C188.165787,85.270157 192.192581,78.926994 191.264038,69.228027 
	C190.432129,60.538406 185.052704,55.235096 176.366898,54.889481 
	C170.715073,54.664585 165.048279,54.769058 159.389069,54.821602 
	C158.410522,54.830681 157.436417,55.317516 157.740387,55.234634 
	C158.684464,57.940216 159.914169,60.102547 160.121399,62.358795 
	C160.485291,66.320862 160.393768,70.349655 160.178055,74.333443 
	C159.934784,78.826241 162.388885,84.209648 155.534058,86.775925 
	C155.817017,87.187927 156.099960,87.599922 156.382904,88.011925 
	C159.760254,88.011925 163.137589,88.011925 167.489792,88.011810 
M215.475800,54.781330 
	C208.407715,54.781330 201.339615,54.781330 193.722534,54.781330 
	C194.105133,58.119560 194.366089,60.396336 194.627045,62.673107 
	C195.176605,62.649021 195.726151,62.624939 196.275711,62.600853 
	C196.723923,60.820301 197.172134,59.039745 197.580170,57.418789 
	C200.481659,57.418789 203.040878,57.418789 205.993088,57.418789 
	C205.993088,63.791470 206.065933,69.759781 205.968338,75.725311 
	C205.899521,79.932785 207.773453,85.015022 201.535583,87.322479 
	C207.262268,87.322479 212.988937,87.322479 218.715607,87.322479 
	C219.212784,86.875626 219.709961,86.428772 220.207138,85.981918 
	C212.995590,85.499329 214.816925,81.020271 214.727676,77.478020 
	C214.614548,72.987167 214.698318,68.491318 214.700806,63.997620 
	C214.705093,56.248985 214.743149,56.218777 222.449692,57.507050 
	C223.201111,59.317707 223.922791,61.056705 224.929932,63.483582 
	C228.331650,56.806557 227.304916,54.828693 221.458282,54.783703 
	C219.794037,54.770897 218.129639,54.781136 215.475800,54.781330 
M139.312912,81.114571 
	C139.699799,83.016251 140.086670,84.917923 140.578827,87.337021 
	C144.301300,87.337021 149.098831,87.337021 153.587997,87.337021 
	C150.561630,83.308235 145.825073,79.734886 145.575745,75.871918 
	C145.344757,72.293350 149.912155,68.405075 152.503433,64.443962 
	C149.991333,64.443962 147.202927,64.443962 143.148346,64.443962 
	C146.652756,67.744293 145.754898,69.942238 142.551193,71.786850 
	C141.557983,70.472816 140.666977,69.294006 139.748291,68.078583 
	C140.461197,67.070023 141.136215,66.115051 142.099258,64.752602 
	C136.762115,64.752602 132.024872,64.752602 126.524376,64.752602 
	C136.392303,74.098778 140.185486,76.705696 126.665222,87.409439 
	C130.394501,87.409439 133.526230,87.409439 137.665894,87.409439 
	C136.138336,85.712914 135.370682,84.860344 134.082321,83.429489 
	C135.918350,82.343903 137.392395,81.472351 139.312912,81.114571 
M102.464111,121.994118 
	C95.147316,122.004181 87.815292,121.768028 80.525780,122.219109 
	C78.950081,122.316620 77.527412,124.887085 76.034264,126.318489 
	C77.460686,127.550789 78.857040,129.808228 80.318359,129.851120 
	C90.785858,130.158218 101.270821,130.158386 111.738136,129.847885 
	C113.181175,129.805069 114.557487,127.512741 115.964699,126.261856 
	C114.619225,124.856667 113.483093,122.643600 111.881073,122.228493 
	C109.228104,121.541054 106.275101,122.011505 102.464111,121.994118 
M87.560745,102.990395 
	C85.406197,102.991325 83.124969,102.550598 81.133972,103.121704 
	C79.271622,103.655914 77.717003,105.262962 76.026947,106.397850 
	C77.707436,107.573303 79.355003,109.706329 81.073883,109.765442 
	C90.675110,110.095642 100.299454,110.095375 109.900772,109.766342 
	C111.628250,109.707146 113.285118,107.587334 114.974579,106.418892 
	C113.291031,105.277657 111.654770,103.243553 109.915665,103.151459 
	C102.808945,102.775124 95.670792,102.992050 87.560745,102.990395 
M106.343994,141.804596 
	C98.056946,141.807693 89.763229,141.641418 81.488899,141.967255 
	C79.967636,142.027176 78.524979,144.082993 77.046036,145.217545 
	C78.521698,146.457092 79.961418,148.716217 81.478905,148.769745 
	C90.914436,149.102448 100.374588,149.127365 109.807686,148.763947 
	C111.426270,148.701569 112.954163,146.285202 114.523941,144.956238 
	C112.941437,143.907761 111.417404,142.748581 109.747055,141.866455 
	C109.098221,141.523788 108.119034,141.806671 106.343994,141.804596 
M106.087334,55.008411 
	C97.930710,55.008175 89.766663,54.828030 81.623909,55.164009 
	C80.051353,55.228893 78.562119,57.313255 77.034454,58.466034 
	C78.488426,59.642269 79.903008,61.773819 81.402924,61.835651 
	C89.545746,62.171310 97.714546,62.141541 105.861893,61.866779 
	C107.388130,61.815311 108.857574,60.079647 110.353218,59.121197 
	C109.235161,57.763443 108.117111,56.405689 106.087334,55.008411 
M77.877007,45.867966 
	C75.844627,49.850044 76.538750,52.284523 80.288078,52.678936 
	C84.199677,53.090424 88.247574,53.148693 92.114273,52.561073 
	C93.574776,52.339127 94.694984,49.877899 95.970314,48.437424 
	C94.601852,47.292595 93.296364,45.270325 91.853180,45.166771 
	C87.450195,44.850826 82.994179,45.273914 77.877007,45.867966 
M90.853325,100.980461 
	C92.085869,99.547539 93.318413,98.114624 94.550964,96.681709 
	C93.026711,95.458664 91.633446,93.463943 89.950089,93.178207 
	C86.751587,92.635277 83.287994,92.615036 80.135590,93.301346 
	C78.676025,93.619118 77.030235,95.996071 76.754768,97.653221 
	C76.609100,98.529533 79.099525,100.585030 80.613586,100.840279 
	C83.660141,101.353867 86.853050,100.999290 90.853325,100.980461 
M64.503113,81.912422 
	C65.989204,81.874954 67.527878,82.069290 68.949348,81.746902 
	C71.207016,81.234863 74.002876,80.429489 72.862419,77.393494 
	C72.307320,75.915802 70.083153,74.512840 68.383972,74.147034 
	C65.856773,73.602974 63.032928,73.593864 60.513100,74.155167 
	C58.835217,74.528915 56.650768,76.007133 56.130226,77.494125 
	C55.048744,80.583527 57.938503,81.204369 60.153652,81.771866 
	C61.246227,82.051765 62.454609,81.879631 64.503113,81.912422 
M58.485153,52.165039 
	C61.920895,52.372108 65.373032,52.872456 68.786530,52.681671 
	C71.009422,52.557430 73.918282,51.641945 72.875122,48.520786 
	C72.378967,47.036289 70.201035,45.496887 68.544136,45.157314 
	C65.843002,44.603733 62.914062,44.769924 60.142021,45.117325 
	C58.730030,45.294277 56.609245,46.296490 56.323002,47.340721 
	C55.962234,48.656830 57.148315,50.396957 58.485153,52.165039 
M37.561260,79.807396 
	C41.805279,83.315399 46.626675,82.200890 51.253632,81.172600 
	C52.376518,80.923042 53.827724,78.814278 53.784344,77.608772 
	C53.742466,76.445137 52.064266,74.503365 50.932957,74.370811 
	C47.347008,73.950630 43.609169,73.813820 40.085087,74.439980 
	C38.887104,74.652840 38.149532,77.456970 37.561260,79.807396 
M43.692116,103.000641 
	C43.030842,103.008049 42.217411,102.769615 41.735966,103.067581 
	C40.097672,104.081543 38.576485,105.284714 37.010582,106.415642 
	C38.474823,107.894623 39.715588,110.181885 41.455723,110.663010 
	C44.060947,111.383316 47.141541,111.320755 49.778332,110.646400 
	C51.413761,110.228142 52.602291,108.062477 53.991413,106.681168 
	C52.513023,105.465973 51.196583,103.865852 49.506157,103.154648 
	C48.097340,102.561943 46.249790,103.012054 43.692116,103.000641 
M59.190086,103.234741 
	C58.115597,104.627335 56.301998,105.976768 56.217297,107.427170 
	C56.157303,108.454506 58.317001,110.350586 59.693130,110.572266 
	C62.770264,111.067970 66.067780,111.206505 69.092590,110.591209 
	C70.613503,110.281837 71.734734,108.007668 73.036713,106.622017 
	C71.703255,105.439247 70.509834,103.516335 69.006416,103.231873 
	C66.113152,102.684471 63.044422,103.064423 59.190086,103.234741 
M57.638699,138.988480 
	C61.729916,139.176407 65.838867,139.637573 69.900780,139.373993 
	C71.016968,139.301544 72.849007,137.024200 72.796074,135.827484 
	C72.741158,134.585968 70.943466,132.627090 69.652527,132.393463 
	C66.584122,131.838181 63.330521,131.800232 60.215092,132.137833 
	C56.232903,132.569321 54.682594,134.777542 57.638699,138.988480 
M52.431984,45.785488 
	C48.493271,45.557808 44.549484,45.096294 40.617569,45.181656 
	C37.826962,45.242233 35.768799,47.590790 37.397305,49.808487 
	C38.725533,51.617264 41.994492,52.539959 44.512569,52.801983 
	C47.793537,53.143406 51.778675,53.970066 53.724926,49.937290 
	C54.166889,49.021515 53.351593,47.498970 52.431984,45.785488 
M53.763546,137.176178 
	C53.191269,135.789612 52.720440,133.263824 52.030159,133.202362 
	C47.727539,132.819199 43.366825,132.843918 39.049191,133.114090 
	C38.328545,133.159180 37.061314,135.190384 37.229103,136.081055 
	C37.454216,137.275986 38.673195,138.966400 39.739796,139.201920 
	C44.364723,140.223190 49.141811,141.288940 53.763546,137.176178 
M81.692078,89.991982 
	C81.772636,88.297836 82.084213,86.558052 81.765076,84.942886 
	C81.688965,84.557640 79.138412,84.048431 78.385628,84.562416 
	C77.409645,85.228783 76.355476,87.703003 76.620888,87.936340 
	C77.847404,89.014694 79.520027,89.585648 81.692078,89.991982 
M78.963722,64.885010 
	C78.531006,66.537247 77.913750,68.181023 77.837151,69.849602 
	C77.823502,70.146973 80.205521,71.055542 81.202415,70.755409 
	C82.176048,70.462265 83.603340,68.345222 83.433693,68.129852 
	C82.389778,66.804543 80.949936,65.791107 78.963722,64.885010 
M81.178490,80.806137 
	C81.537598,79.134361 82.074615,77.463799 82.086082,75.789642 
	C82.088058,75.500198 79.581146,74.626251 78.736969,75.042976 
	C77.698807,75.555473 76.335121,77.778908 76.607445,78.142334 
	C77.514557,79.352921 79.090714,80.062180 81.178490,80.806137 
z"/>
<path fill="#434A54" opacity="1.000000" stroke="none" 
	d="
M27.000229,161.931091 
	C26.993643,123.773148 27.031443,85.615067 26.913094,47.457474 
	C26.901012,43.561890 27.674057,41.280460 32.536392,42.476463 
	C32.964039,82.613556 32.943806,122.272263 32.503056,161.947357 
	C30.388435,161.952850 28.694332,161.941971 27.000229,161.931091 
z"/>
<path fill="#4F6871" opacity="1.000000" stroke="none" 
	d="
M32.923573,161.930969 
	C32.943806,122.272263 32.964039,82.613556 32.967339,42.488770 
	C33.130768,42.018066 33.311127,42.013451 33.762451,42.008518 
	C34.026928,81.673637 34.020428,121.339073 34.026985,161.464844 
	C34.040039,161.925171 34.013264,161.981522 33.732605,161.983185 
	C33.275822,161.966873 33.099697,161.948914 32.923573,161.930969 
z"/>
<path fill="#61737D" opacity="1.000000" stroke="none" 
	d="
M32.503056,161.947357 
	C33.099697,161.948914 33.275822,161.966873 33.716061,162.009644 
	C31.836699,162.173431 29.693226,162.312454 27.274992,162.191284 
	C28.694332,161.941971 30.388435,161.952850 32.503056,161.947357 
z"/>
<path fill="#CCD3DB" opacity="1.000000" stroke="none" 
	d="
M128.057007,190.965149 
	C124.437050,186.881180 124.329712,183.436707 127.597275,181.072174 
	C130.435684,179.018173 133.271774,179.822495 134.757950,182.574951 
	C135.691010,184.302994 136.057358,187.660309 135.029602,188.799301 
	C133.647614,190.330902 130.675995,190.428131 128.057007,190.965149 
z"/>
<path fill="#E6DB71" opacity="1.000000" stroke="none" 
	d="
M155.000000,120.008392 
	C130.858749,120.008034 107.217491,120.008751 83.576241,120.004463 
	C82.245071,120.004219 80.688354,120.387375 79.640915,119.830978 
	C78.385956,119.164352 76.809341,117.705490 76.769241,116.541573 
	C76.728897,115.370651 78.173935,113.705116 79.393265,113.060265 
	C80.587173,112.428864 82.316963,112.756195 83.811562,112.755859 
	C126.931877,112.746025 170.052185,112.746056 213.172501,112.755745 
	C214.667175,112.756081 216.394989,112.428200 217.591599,113.057167 
	C218.813522,113.699440 220.265991,115.356735 220.230499,116.527611 
	C220.195206,117.691788 218.624924,119.158806 217.372437,119.828712 
	C216.327759,120.387474 214.768890,120.004814 213.437759,120.005127 
	C194.125168,120.009575 174.812592,120.008286 155.000000,120.008392 
z"/>
<path fill="#E5DA71" opacity="1.000000" stroke="none" 
	d="
M204.170013,138.727264 
	C162.676376,138.925995 121.587898,139.011688 80.500076,138.883942 
	C79.012131,138.879333 77.530716,136.775345 76.046265,135.649750 
	C77.544991,134.438599 79.012817,133.185104 80.567429,132.050522 
	C80.894722,131.811646 81.540550,132.006104 82.039604,132.006104 
	C121.300598,132.005997 160.561615,131.994293 199.822571,132.019775 
	C205.768402,132.023636 206.995926,133.801178 204.170013,138.727264 
z"/>
<path fill="#E4D970" opacity="1.000000" stroke="none" 
	d="
M87.116188,158.959167 
	C84.638557,158.947662 82.439919,159.454376 80.705276,158.775513 
	C79.048889,158.127258 77.875656,156.244476 76.490044,154.904373 
	C77.939697,153.884430 79.263229,152.411453 80.872124,151.963547 
	C82.725548,151.447617 84.831039,151.834045 86.827065,151.834000 
	C120.427116,151.833389 154.027161,151.832993 187.627213,151.835617 
	C189.123886,151.835739 190.767822,151.483322 192.075974,151.987854 
	C193.392761,152.495743 195.202957,153.807724 195.282608,154.879868 
	C195.370056,156.056915 193.982635,157.858688 192.771881,158.479645 
	C191.420990,159.172470 189.546097,158.943405 187.899155,158.944382 
	C154.465439,158.964066 121.031715,158.959167 87.116188,158.959167 
z"/>
<path fill="#BF0559" opacity="1.000000" stroke="none" 
	d="
M167.002350,88.011871 
	C163.137589,88.011925 159.760254,88.011925 156.382904,88.011925 
	C156.099960,87.599922 155.817017,87.187927 155.534058,86.775925 
	C162.388885,84.209648 159.934784,78.826241 160.178055,74.333443 
	C160.393768,70.349655 160.485291,66.320862 160.121399,62.358795 
	C159.914169,60.102547 158.684464,57.940216 157.740387,55.234634 
	C157.436417,55.317516 158.410522,54.830681 159.389069,54.821602 
	C165.048279,54.769058 170.715073,54.664585 176.366898,54.889481 
	C185.052704,55.235096 190.432129,60.538406 191.264038,69.228027 
	C192.192581,78.926994 188.165787,85.270157 179.375168,87.095528 
	C175.516342,87.896812 171.457703,87.735855 167.002350,88.011871 
M168.992920,75.455040 
	C168.992920,78.537994 168.992920,81.620949 168.992920,84.588745 
	C177.197403,85.616570 180.072662,83.901619 181.302429,76.654610 
	C181.948853,72.845299 181.821426,68.713364 181.099548,64.906067 
	C179.885696,58.503902 176.051041,56.392712 168.992905,57.769936 
	C168.992905,63.262104 168.992905,68.866226 168.992920,75.455040 
z"/>
<path fill="#C00459" opacity="1.000000" stroke="none" 
	d="
M215.970551,54.781067 
	C218.129639,54.781136 219.794037,54.770897 221.458282,54.783703 
	C227.304916,54.828693 228.331650,56.806557 224.929932,63.483582 
	C223.922791,61.056705 223.201111,59.317707 222.449692,57.507050 
	C214.743149,56.218777 214.705093,56.248985 214.700806,63.997620 
	C214.698318,68.491318 214.614548,72.987167 214.727676,77.478020 
	C214.816925,81.020271 212.995590,85.499329 220.207138,85.981918 
	C219.709961,86.428772 219.212784,86.875626 218.715607,87.322479 
	C212.988937,87.322479 207.262268,87.322479 201.535583,87.322479 
	C207.773453,85.015022 205.899521,79.932785 205.968338,75.725311 
	C206.065933,69.759781 205.993088,63.791470 205.993088,57.418789 
	C203.040878,57.418789 200.481659,57.418789 197.580170,57.418789 
	C197.172134,59.039745 196.723923,60.820301 196.275711,62.600853 
	C195.726151,62.624939 195.176605,62.649021 194.627045,62.673107 
	C194.366089,60.396336 194.105133,58.119560 193.722534,54.781330 
	C201.339615,54.781330 208.407715,54.781330 215.970551,54.781067 
z"/>
<path fill="#BE0759" opacity="1.000000" stroke="none" 
	d="
M139.089691,80.857681 
	C137.392395,81.472351 135.918350,82.343903 134.082321,83.429489 
	C135.370682,84.860344 136.138336,85.712914 137.665894,87.409439 
	C133.526230,87.409439 130.394501,87.409439 126.665222,87.409439 
	C140.185486,76.705696 136.392303,74.098778 126.524376,64.752602 
	C132.024872,64.752602 136.762115,64.752602 142.099258,64.752602 
	C141.136215,66.115051 140.461197,67.070023 139.748291,68.078583 
	C140.666977,69.294006 141.557983,70.472816 142.551193,71.786850 
	C145.754898,69.942238 146.652756,67.744293 143.148346,64.443962 
	C147.202927,64.443962 149.991333,64.443962 152.503433,64.443962 
	C149.912155,68.405075 145.344757,72.293350 145.575745,75.871918 
	C145.825073,79.734886 150.561630,83.308235 153.587997,87.337021 
	C149.098831,87.337021 144.301300,87.337021 140.578827,87.337021 
	C140.086670,84.917923 139.699799,83.016251 139.089691,80.857681 
z"/>
<path fill="#E4D970" opacity="1.000000" stroke="none" 
	d="
M102.956306,121.994110 
	C106.275101,122.011505 109.228104,121.541054 111.881073,122.228493 
	C113.483093,122.643600 114.619225,124.856667 115.964699,126.261856 
	C114.557487,127.512741 113.181175,129.805069 111.738136,129.847885 
	C101.270821,130.158386 90.785858,130.158218 80.318359,129.851120 
	C78.857040,129.808228 77.460686,127.550789 76.034256,126.318481 
	C77.527412,124.887085 78.950081,122.316620 80.525780,122.219109 
	C87.815292,121.768028 95.147316,122.004181 102.956306,121.994110 
z"/>
<path fill="#E2D770" opacity="1.000000" stroke="none" 
	d="
M88.052483,102.990433 
	C95.670792,102.992050 102.808945,102.775124 109.915665,103.151459 
	C111.654770,103.243553 113.291031,105.277657 114.974579,106.418900 
	C113.285118,107.587334 111.628250,109.707146 109.900772,109.766342 
	C100.299454,110.095375 90.675110,110.095642 81.073883,109.765442 
	C79.355003,109.706329 77.707436,107.573303 76.026947,106.397858 
	C77.717003,105.262962 79.271622,103.655914 81.133972,103.121704 
	C83.124969,102.550598 85.406197,102.991325 88.052483,102.990433 
z"/>
<path fill="#E3D870" opacity="1.000000" stroke="none" 
	d="
M106.817162,141.804596 
	C108.119034,141.806671 109.098221,141.523788 109.747055,141.866455 
	C111.417404,142.748581 112.941437,143.907761 114.523941,144.956238 
	C112.954163,146.285202 111.426270,148.701569 109.807686,148.763947 
	C100.374588,149.127365 90.914436,149.102448 81.478905,148.769745 
	C79.961418,148.716217 78.521698,146.457092 77.046036,145.217545 
	C78.524979,144.082993 79.967636,142.027176 81.488899,141.967255 
	C89.763229,141.641418 98.056946,141.807693 106.817162,141.804596 
z"/>
<path fill="#E4D970" opacity="1.000000" stroke="none" 
	d="
M106.543198,55.028175 
	C108.117111,56.405689 109.235161,57.763443 110.353218,59.121197 
	C108.857574,60.079647 107.388130,61.815311 105.861893,61.866779 
	C97.714546,62.141541 89.545746,62.171310 81.402924,61.835651 
	C79.903008,61.773819 78.488426,59.642269 77.034454,58.466034 
	C78.562119,57.313255 80.051353,55.228893 81.623909,55.164009 
	C89.766663,54.828030 97.930710,55.008175 106.543198,55.028175 
z"/>
<path fill="#DFD46F" opacity="1.000000" stroke="none" 
	d="
M78.217903,45.638683 
	C82.994179,45.273914 87.450195,44.850826 91.853180,45.166771 
	C93.296364,45.270325 94.601852,47.292595 95.970314,48.437424 
	C94.694984,49.877899 93.574776,52.339127 92.114273,52.561073 
	C88.247574,53.148693 84.199677,53.090424 80.288078,52.678936 
	C76.538750,52.284523 75.844627,49.850044 78.217903,45.638683 
z"/>
<path fill="#E2D770" opacity="1.000000" stroke="none" 
	d="
M90.419449,100.991699 
	C86.853050,100.999290 83.660141,101.353867 80.613586,100.840279 
	C79.099525,100.585030 76.609100,98.529533 76.754768,97.653221 
	C77.030235,95.996071 78.676025,93.619118 80.135590,93.301346 
	C83.287994,92.615036 86.751587,92.635277 89.950089,93.178207 
	C91.633446,93.463943 93.026711,95.458664 94.550964,96.681702 
	C93.318413,98.114624 92.085869,99.547539 90.419449,100.991699 
z"/>
<path fill="#EC295A" opacity="1.000000" stroke="none" 
	d="
M64.056854,81.912231 
	C62.454609,81.879631 61.246227,82.051765 60.153652,81.771866 
	C57.938503,81.204369 55.048744,80.583527 56.130226,77.494125 
	C56.650768,76.007133 58.835217,74.528915 60.513100,74.155167 
	C63.032928,73.593864 65.856773,73.602974 68.383972,74.147034 
	C70.083153,74.512840 72.307320,75.915802 72.862419,77.393494 
	C74.002876,80.429489 71.207016,81.234863 68.949348,81.746902 
	C67.527878,82.069290 65.989204,81.874954 64.056854,81.912231 
z"/>
<path fill="#EB2A5A" opacity="1.000000" stroke="none" 
	d="
M58.076096,52.059593 
	C57.148315,50.396957 55.962234,48.656830 56.323002,47.340721 
	C56.609245,46.296490 58.730030,45.294277 60.142021,45.117325 
	C62.914062,44.769924 65.843002,44.603733 68.544136,45.157314 
	C70.201035,45.496887 72.378967,47.036289 72.875122,48.520786 
	C73.918282,51.641945 71.009422,52.557430 68.786530,52.681671 
	C65.373032,52.872456 61.920895,52.372108 58.076096,52.059593 
z"/>
<path fill="#E92A59" opacity="1.000000" stroke="none" 
	d="
M55.764591,68.080055 
	C56.783504,66.986168 57.712315,65.072304 58.837845,64.948616 
	C62.553223,64.540344 66.374802,64.491478 70.077675,64.943336 
	C71.200027,65.080299 72.872017,67.319786 72.825104,68.539833 
	C72.779846,69.716797 70.708488,71.892975 69.756798,71.775192 
	C65.154297,71.205589 59.890934,74.438248 55.906281,69.067863 
	C55.840141,68.473267 55.764591,68.080055 55.764591,68.080055 
z"/>
<path fill="#E92A5A" opacity="1.000000" stroke="none" 
	d="
M55.765312,58.077934 
	C56.782658,56.981804 57.708996,55.064697 58.834023,54.939987 
	C62.546246,54.528492 66.365349,54.476807 70.065651,54.926620 
	C71.190948,55.063408 72.867813,57.298637 72.823746,58.519787 
	C72.781181,59.699272 70.715981,61.884403 69.763771,61.769379 
	C65.158791,61.213108 59.896099,64.429977 55.907864,59.063507 
	C55.840233,58.470161 55.765316,58.077938 55.765312,58.077934 
z"/>
<path fill="#637A7E" opacity="1.000000" stroke="none" 
	d="
M37.381416,79.442215 
	C38.149532,77.456970 38.887104,74.652840 40.085087,74.439980 
	C43.609169,73.813820 47.347008,73.950630 50.932957,74.370811 
	C52.064266,74.503365 53.742466,76.445137 53.784344,77.608772 
	C53.827724,78.814278 52.376518,80.923042 51.253632,81.172600 
	C46.626675,82.200890 41.805279,83.315399 37.381416,79.442215 
z"/>
<path fill="#637B7F" opacity="1.000000" stroke="none" 
	d="
M44.144337,103.000465 
	C46.249790,103.012054 48.097340,102.561943 49.506157,103.154648 
	C51.196583,103.865852 52.513023,105.465973 53.991417,106.681168 
	C52.602291,108.062477 51.413761,110.228142 49.778332,110.646400 
	C47.141541,111.320755 44.060947,111.383316 41.455723,110.663010 
	C39.715588,110.181885 38.474823,107.894623 37.010582,106.415642 
	C38.576485,105.284714 40.097672,104.081543 41.735966,103.067581 
	C42.217411,102.769615 43.030842,103.008049 44.144337,103.000465 
z"/>
<path fill="#EE285A" opacity="1.000000" stroke="none" 
	d="
M59.619278,103.147263 
	C63.044422,103.064423 66.113152,102.684471 69.006416,103.231873 
	C70.509834,103.516335 71.703255,105.439247 73.036713,106.622017 
	C71.734734,108.007668 70.613503,110.281837 69.092590,110.591209 
	C66.067780,111.206505 62.770264,111.067970 59.693130,110.572266 
	C58.317001,110.350586 56.157303,108.454506 56.217297,107.427170 
	C56.301998,105.976768 58.115597,104.627335 59.619278,103.147263 
z"/>
<path fill="#EE285A" opacity="1.000000" stroke="none" 
	d="
M57.251923,138.816895 
	C54.682594,134.777542 56.232903,132.569321 60.215092,132.137833 
	C63.330521,131.800232 66.584122,131.838181 69.652527,132.393463 
	C70.943466,132.627090 72.741158,134.585968 72.796074,135.827484 
	C72.849007,137.024200 71.016968,139.301544 69.900780,139.373993 
	C65.838867,139.637573 61.729916,139.176407 57.251923,138.816895 
z"/>
<path fill="#637A7E" opacity="1.000000" stroke="none" 
	d="
M52.773491,46.020599 
	C53.351593,47.498970 54.166889,49.021515 53.724926,49.937290 
	C51.778675,53.970066 47.793537,53.143406 44.512569,52.801983 
	C41.994492,52.539959 38.725533,51.617264 37.397305,49.808487 
	C35.768799,47.590790 37.826962,45.242233 40.617569,45.181656 
	C44.549484,45.096294 48.493271,45.557808 52.773491,46.020599 
z"/>
<path fill="#637B7F" opacity="1.000000" stroke="none" 
	d="
M53.578358,137.528763 
	C49.141811,141.288940 44.364723,140.223190 39.739796,139.201920 
	C38.673195,138.966400 37.454216,137.275986 37.229103,136.081055 
	C37.061314,135.190384 38.328545,133.159180 39.049191,133.114090 
	C43.366825,132.843918 47.727539,132.819199 52.030159,133.202362 
	C52.720440,133.263824 53.191269,135.789612 53.578358,137.528763 
z"/>
<path fill="#637B7F" opacity="1.000000" stroke="none" 
	d="
M55.787552,145.856659 
	C51.093910,150.880844 45.055096,148.728775 39.487621,148.702621 
	C38.656960,148.698715 37.346817,146.761963 37.162693,145.578674 
	C37.011589,144.607620 37.932423,142.970398 38.851372,142.423203 
	C41.954788,140.575165 52.535568,142.368240 55.481194,145.203918 
	C55.864799,145.495193 55.787552,145.856659 55.787552,145.856659 
z"/>
<path fill="#637B7F" opacity="1.000000" stroke="none" 
	d="
M55.787849,155.860519 
	C51.092983,160.882690 45.054161,158.729065 39.486698,158.704269 
	C38.656559,158.700562 37.346508,156.763748 37.162510,155.580612 
	C37.011417,154.609100 37.931149,152.971146 38.849869,152.424332 
	C41.945503,150.581787 52.544415,152.376938 55.481575,155.203918 
	C55.865570,155.495895 55.787849,155.860519 55.787849,155.860519 
z"/>
<path fill="#637B7F" opacity="1.000000" stroke="none" 
	d="
M55.787838,126.854378 
	C51.091343,131.863312 45.058464,129.739670 39.489674,129.697449 
	C38.655300,129.691132 37.347466,127.755028 37.162636,126.570572 
	C37.011429,125.601570 37.936321,123.966011 38.855824,123.419403 
	C41.967861,121.569420 52.525452,123.358078 55.481331,126.200104 
	C55.864483,126.492317 55.787838,126.854378 55.787838,126.854378 
z"/>
<path fill="#637B7F" opacity="1.000000" stroke="none" 
	d="
M55.787724,116.854713 
	C51.089283,121.858200 45.058762,119.743759 39.489182,119.694054 
	C38.653660,119.686600 37.347191,117.751915 37.162853,116.567955 
	C37.012001,115.599106 37.937576,113.964432 38.857208,113.417870 
	C41.974144,111.565407 52.520306,113.352287 55.480965,116.199348 
	C55.863979,116.492096 55.787724,116.854713 55.787724,116.854713 
z"/>
<path fill="#637B7F" opacity="1.000000" stroke="none" 
	d="
M55.788509,97.861382 
	C51.085075,102.850220 45.058022,100.745033 39.488472,100.691490 
	C38.650517,100.683426 37.343845,98.750031 37.156921,97.564857 
	C37.004391,96.597748 37.929523,94.966034 38.848267,94.414940 
	C41.923817,92.570152 52.499775,94.338676 55.482437,97.173492 
	C55.863171,97.477028 55.788509,97.861382 55.788509,97.861382 
z"/>
<path fill="#637B7F" opacity="1.000000" stroke="none" 
	d="
M55.788338,87.861526 
	C51.081463,92.835144 45.060387,90.758896 39.489098,90.687576 
	C38.647446,90.676796 37.343422,88.744545 37.156353,87.558632 
	C37.003990,86.592773 37.932377,84.962303 38.851746,84.411720 
	C41.934097,82.565788 52.494701,84.333031 55.482487,87.172592 
	C55.863045,87.476715 55.788338,87.861526 55.788338,87.861526 
z"/>
<path fill="#637B7F" opacity="1.000000" stroke="none" 
	d="
M55.428173,67.961807 
	C55.764591,68.080055 55.840141,68.473267 55.805321,68.668739 
	C51.065639,73.836594 45.051777,71.765129 39.483608,71.678215 
	C38.640419,71.665062 37.340832,69.734650 37.154686,68.549370 
	C37.003223,67.584908 37.933418,65.959351 38.852547,65.407730 
	C41.922558,63.565224 52.476330,65.318542 55.428173,67.961807 
z"/>
<path fill="#637B7F" opacity="1.000000" stroke="none" 
	d="
M55.428825,57.960056 
	C55.765316,58.077938 55.840233,58.470161 55.805832,58.665104 
	C51.066582,63.830025 45.054615,61.772007 39.485199,61.675785 
	C38.640041,61.661186 37.341846,59.731586 37.155491,58.545937 
	C37.004005,57.582130 37.935516,55.957401 38.854832,55.405590 
	C41.933445,53.557678 52.465897,55.307819 55.428825,57.960056 
z"/>
<path fill="#F1275A" opacity="1.000000" stroke="none" 
	d="
M55.885590,117.262787 
	C55.787724,116.854713 55.863979,116.492096 55.824814,116.312637 
	C56.824078,115.067787 57.782597,113.196686 58.915539,113.084320 
	C62.690773,112.709900 66.546562,112.769859 70.330025,113.116249 
	C71.301926,113.205223 72.717880,114.887131 72.848785,115.968140 
	C72.989204,117.127785 71.895172,119.496933 71.271385,119.520432 
	C66.529427,119.699028 61.768936,119.467751 57.020569,119.234734 
	C56.650173,119.216553 56.328022,118.215240 55.885590,117.262787 
z"/>
<path fill="#F1275A" opacity="1.000000" stroke="none" 
	d="
M55.882072,146.267502 
	C55.787552,145.856659 55.864799,145.495193 55.825844,145.316193 
	C56.665169,144.099716 57.480606,142.239868 58.432602,142.167114 
	C62.555626,141.852066 66.734024,141.878143 70.853729,142.230743 
	C71.666748,142.300339 72.882851,144.365265 72.869591,145.497772 
	C72.856331,146.629944 71.598793,148.659744 70.776138,148.717377 
	C66.485794,149.017853 62.155937,148.903259 57.851440,148.694046 
	C57.195385,148.662155 56.600025,147.381454 55.882072,146.267502 
z"/>
<path fill="#F1275A" opacity="1.000000" stroke="none" 
	d="
M55.884056,127.263809 
	C55.787838,126.854378 55.864483,126.492317 55.825386,126.313087 
	C56.826351,125.070122 57.786884,123.201843 58.921017,123.089745 
	C62.699108,122.716286 66.565407,122.735268 70.338669,123.146835 
	C71.345047,123.256607 72.706276,125.239944 72.854904,126.488098 
	C72.976982,127.513336 71.607620,129.640762 70.787659,129.698685 
	C66.498863,130.001572 62.170212,129.888474 57.866936,129.681015 
	C57.207317,129.649200 56.607662,128.373596 55.884056,127.263809 
z"/>
<path fill="#F0285A" opacity="1.000000" stroke="none" 
	d="
M55.887688,88.267273 
	C55.788338,87.861526 55.863045,87.476715 55.823692,87.285965 
	C56.502590,86.097862 57.163933,84.292839 57.948574,84.237534 
	C62.224159,83.936249 66.556458,83.774986 70.815323,84.160767 
	C73.210373,84.377716 73.916824,88.447945 72.117493,90.140564 
	C70.038681,92.096092 58.247925,91.023376 55.887688,88.267273 
z"/>
<path fill="#F1275A" opacity="1.000000" stroke="none" 
	d="
M55.881935,156.271683 
	C55.787849,155.860519 55.865570,155.495895 55.826530,155.315277 
	C56.668232,154.099289 57.478436,152.254135 58.442043,152.170212 
	C62.397396,151.825699 66.414803,151.828125 70.373184,152.149216 
	C71.324028,152.226349 72.727379,153.949814 72.850464,155.037460 
	C72.981674,156.196930 71.879517,158.550934 71.251167,158.573380 
	C66.504890,158.742935 61.740906,158.502182 56.989029,158.260300 
	C56.625534,158.241791 56.312504,157.231918 55.881935,156.271683 
z"/>
<path fill="#F0285A" opacity="1.000000" stroke="none" 
	d="
M55.887207,98.267815 
	C55.788509,97.861382 55.863171,97.477028 55.823853,97.286514 
	C56.829689,96.035843 57.786278,94.190948 58.936428,94.061134 
	C62.536449,93.654839 66.245018,93.607040 69.834145,94.048874 
	C71.021187,94.195000 72.804230,96.252930 72.799034,97.430069 
	C72.793854,98.605637 70.751602,100.873421 69.843208,100.758507 
	C65.218857,100.173538 59.942055,103.424301 55.887207,98.267815 
z"/>
<path fill="#D7CD6C" opacity="1.000000" stroke="none" 
	d="
M81.362434,90.165207 
	C79.520027,89.585648 77.847404,89.014694 76.620888,87.936340 
	C76.355476,87.703003 77.409645,85.228783 78.385628,84.562416 
	C79.138412,84.048431 81.688965,84.557640 81.765076,84.942886 
	C82.084213,86.558052 81.772636,88.297836 81.362434,90.165207 
z"/>
<path fill="#DBD16E" opacity="1.000000" stroke="none" 
	d="
M79.302765,64.779465 
	C80.949936,65.791107 82.389778,66.804543 83.433693,68.129852 
	C83.603340,68.345222 82.176048,70.462265 81.202415,70.755409 
	C80.205521,71.055542 77.823502,70.146973 77.837151,69.849602 
	C77.913750,68.181023 78.531006,66.537247 79.302765,64.779465 
z"/>
<path fill="#DBD16E" opacity="1.000000" stroke="none" 
	d="
M80.794464,80.884857 
	C79.090714,80.062180 77.514557,79.352921 76.607445,78.142334 
	C76.335121,77.778908 77.698807,75.555473 78.736969,75.042976 
	C79.581146,74.626251 82.088058,75.500198 82.086082,75.789642 
	C82.074615,77.463799 81.537598,79.134361 80.794464,80.884857 
z"/>
<path fill="#454A54" opacity="1.000000" stroke="none" 
	d="
M168.992920,74.962692 
	C168.992905,68.866226 168.992905,63.262104 168.992905,57.769936 
	C176.051041,56.392712 179.885696,58.503902 181.099548,64.906067 
	C181.821426,68.713364 181.948853,72.845299 181.302429,76.654610 
	C180.072662,83.901619 177.197403,85.616570 168.992920,84.588745 
	C168.992920,81.620949 168.992920,78.537994 168.992920,74.962692 
z"/>
</svg>
